<?xml version="1.0" standalone="no"?>
<!DOCTYPE svg PUBLIC "-//W3C//DTD SVG 20010904//EN"
 "http://www.w3.org/TR/2001/REC-SVG-20010904/DTD/svg10.dtd">
<svg version="1.0" xmlns="http://www.w3.org/2000/svg"
 width="1000.000000pt" height="1000.000000pt" viewBox="0 0 1000.000000 1000.000000"
 preserveAspectRatio="xMidYMid meet">
<metadata>
Created by potrace 1.11, written by Peter Selinger 2001-2013
</metadata>
<g transform="translate(0.000000,1000.000000) scale(0.100000,-0.100000)"
fill="#000000" stroke="none">
<path d="M4850 9920 c-1063 -101 -1977 -698 -2487 -1625 -179 -324 -294 -672
-354 -1065 -33 -217 -33 -573 -1 -755 172 -956 927 -2517 2200 -4545 291 -464
863 -1338 886 -1352 6 -4 16 -8 22 -8 26 0 720 1066 1121 1720 1131 1846 1792
3237 1970 4145 25 131 27 157 27 400 0 280 -15 418 -70 657 -210 919 -832
1703 -1679 2118 -316 155 -622 246 -990 296 -134 18 -515 26 -645 14z m638
-45 c907 -115 1709 -610 2207 -1364 268 -406 433 -855 496 -1351 21 -161 18
-529 -4 -665 -156 -929 -925 -2519 -2205 -4560 -302 -481 -857 -1325 -871
-1325 -8 0 -415 610 -611 915 -1443 2248 -2310 4002 -2466 4986 -23 139 -25
468 -5 634 110 920 598 1719 1366 2235 343 230 748 393 1169 470 87 16 157 24
361 44 83 8 445 -4 563 -19z"/>
<path d="M4830 9739 c-1278 -123 -2337 -1084 -2584 -2345 -44 -225 -51 -306
-50 -574 0 -212 4 -279 23 -400 82 -530 273 -978 598 -1397 87 -113 373 -399
486 -486 419 -325 866 -516 1397 -598 121 -19 187 -23 405 -23 313 -1 464 17
743 90 816 211 1506 773 1877 1528 152 311 238 591 286 936 18 127 18 593 0
720 -113 809 -512 1497 -1147 1975 -426 322 -953 525 -1489 575 -126 11 -420
11 -545 -1z m590 -130 c502 -50 1021 -264 1429 -589 585 -465 957 -1140 1042
-1885 16 -141 16 -457 0 -605 -68 -631 -345 -1210 -796 -1666 -389 -393 -883
-663 -1409 -769 -359 -73 -782 -74 -1130 -5 -1095 220 -1966 1091 -2186 2186
-70 351 -68 775 6 1134 194 943 893 1739 1807 2059 393 137 798 183 1237 140z"/>
<path d="M4576 8994 c-3 -26 -6 -82 -6 -125 0 -65 -3 -79 -16 -79 -18 0 -44
-23 -44 -39 0 -6 -9 -11 -20 -11 -15 0 -20 -7 -20 -25 0 -31 47 -105 66 -105
11 0 14 -34 13 -182 -1 -101 -4 -167 -8 -148 l-6 35 -87 3 -87 3 -4 -38 c-3
-21 -5 9 -5 67 0 145 -12 177 -46 125 -11 -16 -14 -34 -10 -52 5 -21 4 -25 -5
-17 -6 6 -16 39 -21 75 -15 96 -19 109 -35 109 -9 0 -19 -25 -30 -77 -9 -43
-20 -87 -25 -98 -7 -17 -9 -15 -9 13 -1 37 -16 72 -31 72 -6 0 -10 -7 -10 -15
0 -8 -3 -15 -7 -15 -5 0 -6 -81 -5 -180 4 -177 4 -180 -17 -180 -12 0 -21 -4
-21 -10 0 -5 -10 -10 -23 -10 -13 0 -28 -5 -35 -12 -9 -9 -12 35 -12 201 0
187 2 215 17 226 18 13 10 35 -13 35 -8 0 -14 9 -14 20 0 13 -7 20 -20 20 -13
0 -20 7 -20 20 0 13 -7 20 -20 20 -13 0 -20 -7 -20 -20 0 -13 -7 -20 -20 -20
-13 0 -20 -7 -20 -20 0 -13 -7 -20 -20 -20 -13 0 -20 -7 -20 -20 0 -11 5 -20
10 -20 6 0 10 -77 10 -210 0 -241 1 -238 -84 -143 -81 90 -175 127 -263 104
-46 -12 -121 -75 -153 -126 -12 -19 -28 -35 -35 -35 -9 0 -15 -16 -17 -47 -3
-48 -3 -48 -40 -51 -36 -3 -38 -5 -38 -38 0 -24 5 -34 15 -34 8 0 15 9 15 20
0 17 7 20 40 20 l40 0 0 50 0 50 243 0 c223 0 244 -2 267 -20 47 -35 50 -20
50 239 1 250 4 271 47 271 13 0 23 -9 27 -22 3 -13 6 -130 6 -260 l0 -238 25
0 c14 0 28 7 31 15 4 9 19 15 40 15 19 0 34 5 34 10 0 6 9 10 20 10 19 0 20 7
20 130 0 108 3 130 15 130 16 0 42 44 61 105 9 28 13 33 13 17 2 -43 42 -122
62 -122 17 0 19 -8 19 -65 l0 -65 35 0 c33 0 35 2 35 35 l0 35 60 0 60 0 0
-35 c0 -33 2 -35 35 -35 l35 0 0 215 c0 204 -1 215 -19 215 -18 0 -51 38 -51
60 0 5 18 10 40 10 l40 0 2 88 2 87 5 -85 6 -85 43 -3 c23 -2 42 -5 42 -8 0
-3 -7 -18 -15 -34 -11 -21 -23 -30 -40 -30 l-25 0 2 -212 c3 -182 5 -213 18
-213 8 0 16 10 18 23 2 12 9 22 17 22 7 0 16 6 19 13 5 10 7 10 12 0 3 -7 19
-13 35 -13 19 0 29 -5 29 -15 0 -8 9 -15 20 -15 18 0 20 -7 20 -65 0 -62 1
-65 25 -65 17 0 32 11 50 37 23 34 25 47 25 144 0 89 4 115 22 155 15 33 25
79 30 144 8 105 43 283 51 260 10 -29 37 -226 40 -285 l2 -60 47 -3 47 -3 4
88 c4 84 36 273 47 273 11 0 43 -212 47 -312 4 -106 5 -108 28 -108 13 0 26 6
28 13 3 7 6 5 6 -5 1 -16 12 -18 81 -18 l80 0 35 -47 c25 -35 35 -59 35 -86 0
-28 6 -44 23 -58 31 -26 43 -24 69 11 12 17 25 30 29 30 3 0 12 -13 19 -30 15
-37 44 -39 66 -5 9 14 20 25 24 25 4 0 12 -11 18 -25 16 -34 62 -36 62 -2 0
13 9 32 21 43 17 16 22 16 29 4 6 -8 10 -23 10 -32 0 -15 9 -18 48 -18 46 0
50 2 80 45 l32 45 244 0 244 0 26 -34 c14 -19 26 -39 26 -45 0 -5 14 -18 30
-28 27 -15 30 -23 30 -65 l0 -47 103 -3 102 -3 14 -32 c12 -26 21 -33 43 -33
26 0 28 -3 28 -40 0 -36 3 -40 25 -40 16 0 25 -6 25 -15 0 -8 7 -15 15 -15 10
0 15 11 15 35 0 31 -3 35 -25 35 -22 0 -25 4 -25 35 0 32 -2 35 -30 35 -25 0
-33 6 -47 35 l-17 35 -93 0 -93 0 0 33 c0 23 -9 41 -35 67 -19 19 -51 54 -71
78 l-36 42 -255 0 -255 0 -29 -31 c-16 -17 -29 -35 -29 -40 0 -5 -12 -9 -27
-9 -21 0 -34 9 -51 36 l-23 35 -45 -36 c-25 -21 -46 -36 -48 -34 -2 2 -9 15
-16 28 l-13 25 -26 -32 c-28 -34 -36 -33 -65 12 l-18 29 -37 -43 c-43 -50 -61
-47 -61 9 0 28 -10 52 -41 94 l-40 57 -68 0 c-60 0 -69 2 -74 20 -4 14 -14 20
-35 20 l-31 0 -4 98 c-3 53 -17 161 -33 240 -23 115 -31 142 -45 142 -11 0
-18 -11 -22 -32 -31 -180 -40 -224 -48 -232 -5 -6 -9 -50 -9 -98 0 -72 -3 -88
-15 -88 -12 0 -15 14 -15 68 0 37 -6 87 -14 112 -7 25 -21 96 -31 158 -15 91
-21 112 -35 112 -14 0 -21 -24 -40 -127 -12 -71 -27 -132 -31 -137 -5 -6 -9
-50 -9 -99 0 -76 -4 -98 -30 -159 -27 -62 -30 -81 -30 -172 0 -74 -4 -107 -15
-122 -13 -17 -14 -13 -15 49 0 60 -2 67 -20 67 -11 0 -20 5 -20 10 0 6 -11 10
-25 10 -14 0 -25 5 -25 10 0 6 -22 10 -50 10 l-50 0 0 150 c0 140 1 150 19
150 24 0 52 43 58 91 5 35 3 39 -16 39 -12 0 -20 3 -17 8 7 12 -18 39 -39 43
-18 4 -20 15 -25 124 -4 100 -8 120 -21 123 -12 2 -18 -8 -23 -44z m-1018
-829 c-4 -87 -22 -88 -26 -2 -2 56 0 67 13 67 13 0 15 -11 13 -65z m52 -5 c0
-40 -4 -70 -10 -70 -6 0 -10 30 -10 70 0 40 4 70 10 70 6 0 10 -30 10 -70z
m-110 -10 c0 -33 -4 -60 -10 -60 -6 0 -10 27 -10 60 0 33 4 60 10 60 6 0 10
-27 10 -60z m170 -6 c0 -30 -4 -54 -10 -54 -6 0 -10 27 -10 61 0 37 4 58 10
54 6 -3 10 -31 10 -61z m58 -17 c-5 -52 -28 -45 -28 8 0 42 2 46 16 35 9 -8
14 -25 12 -43z m-288 3 c0 -22 -4 -40 -10 -40 -11 0 -14 63 -3 73 11 12 13 8
13 -33z m340 -31 c0 -5 -4 -9 -10 -9 -5 0 -10 7 -10 16 0 8 5 12 10 9 6 -3 10
-10 10 -16z"/>
<path d="M5160 7670 l0 -360 40 0 40 0 0 112 0 113 106 -113 106 -112 49 0
c27 0 49 3 49 8 0 4 -52 56 -115 115 -63 60 -115 112 -115 116 0 5 46 50 103
101 56 52 104 97 105 102 2 4 -18 8 -44 8 -48 0 -50 -1 -146 -97 l-98 -98 0
233 0 232 -40 0 -40 0 0 -360z"/>
<path d="M6830 7821 l0 -60 -47 -3 c-44 -3 -48 -5 -51 -30 -3 -26 -1 -27 45
-30 l48 -3 5 -166 c5 -182 8 -191 68 -216 22 -9 49 -12 78 -7 42 6 44 8 44 39
0 33 0 33 -40 28 -30 -4 -45 -1 -60 12 -18 17 -20 31 -20 167 l0 148 60 0 60
0 0 30 0 30 -60 0 -60 0 0 60 0 60 -35 0 -35 0 0 -59z"/>
<path d="M2650 7749 c-19 -11 -40 -27 -47 -36 -9 -12 -12 -9 -18 16 -6 28 -11
31 -42 31 -36 0 -36 0 -29 -37 3 -21 6 -122 6 -225 l0 -188 35 0 35 0 0 134
c0 73 5 148 11 167 35 103 157 130 198 44 10 -21 16 -79 19 -187 l5 -158 33 0
33 0 3 153 c3 174 12 202 71 231 33 16 45 17 78 7 63 -19 73 -48 77 -233 l4
-158 35 0 34 0 -3 179 c-3 163 -5 182 -24 207 -33 45 -70 67 -122 72 -65 6
-114 -11 -150 -52 l-29 -33 -15 27 c-33 57 -134 77 -198 39z"/>
<path d="M3764 7746 c-63 -29 -72 -42 -47 -68 20 -19 20 -19 57 3 27 15 54 22
94 22 50 0 58 -3 84 -32 15 -17 28 -42 28 -54 0 -22 -6 -24 -97 -33 -55 -6
-115 -18 -137 -29 -102 -49 -100 -192 3 -241 52 -25 149 -16 194 18 36 28 47
27 47 -4 0 -14 8 -18 33 -18 l32 0 -3 152 c-3 192 -6 211 -43 253 -52 59 -156
72 -245 31z m216 -246 c0 -79 -63 -140 -144 -140 -72 0 -115 76 -68 122 24 25
100 46 165 47 46 1 47 0 47 -29z"/>
<path d="M4670 7759 c-14 -6 -37 -22 -52 -36 l-28 -27 0 32 c0 30 -2 32 -35
32 l-35 0 0 -225 0 -225 40 0 40 0 0 146 c0 131 2 150 21 184 25 44 54 60 108
60 33 0 40 4 45 25 4 14 4 30 1 35 -8 13 -73 12 -105 -1z"/>
<path d="M6053 7746 c-168 -79 -171 -335 -4 -423 85 -45 209 -25 274 44 l28
30 -25 21 -26 20 -31 -29 c-61 -57 -150 -62 -210 -12 -29 25 -59 77 -59 102 0
7 68 12 183 13 l182 3 -3 54 c-9 160 -159 246 -309 177z m155 -51 c26 -11 46
-29 60 -54 40 -71 40 -71 -123 -71 -80 0 -145 2 -145 5 0 18 31 74 52 93 45
41 98 50 156 27z"/>
<path d="M7465 7756 c-48 -22 -77 -60 -82 -110 -5 -41 -3 -48 28 -79 25 -25
55 -40 111 -57 92 -27 122 -51 113 -89 -17 -70 -120 -81 -189 -21 l-33 30 -27
-21 -27 -21 23 -26 c52 -56 168 -79 241 -48 58 25 82 60 82 123 0 50 -3 58
-33 83 -20 16 -67 37 -114 50 -86 25 -115 51 -103 90 9 28 68 53 106 45 16 -4
43 -18 59 -32 29 -24 32 -24 55 -9 31 20 31 27 2 54 -51 48 -149 66 -212 38z"/>
<path d="M5253 7110 c-41 -24 -59 -60 -73 -143 l-12 -67 -39 0 c-35 0 -39 -3
-39 -25 0 -22 4 -25 35 -25 19 0 35 -1 35 -2 0 -2 -11 -64 -25 -138 -31 -170
-31 -170 0 -170 29 0 27 -6 58 175 l23 130 39 3 c39 3 55 15 55 40 0 7 -15 12
-40 12 -46 0 -47 5 -29 91 14 63 38 89 84 89 31 0 35 3 35 25 0 22 -4 25 -37
25 -21 0 -52 -9 -70 -20z"/>
<path d="M4765 6891 c-78 -36 -126 -112 -127 -202 0 -65 26 -108 82 -136 134
-69 293 39 293 199 0 47 -5 63 -28 93 -49 65 -139 83 -220 46z m154 -57 c102
-85 -12 -283 -145 -250 -14 4 -37 18 -50 31 -31 31 -33 113 -5 165 41 79 139
105 200 54z"/>
<path d="M4130 5860 l0 -530 120 0 120 0 0 530 0 530 -120 0 -120 0 0 -530z"/>
<path d="M2959 6031 c-111 -35 -200 -121 -236 -226 -25 -73 -21 -194 7 -270
31 -81 113 -163 195 -196 50 -20 78 -24 171 -24 107 0 113 1 180 35 38 19 69
41 69 47 0 7 -27 46 -59 87 l-60 74 -27 -20 c-34 -26 -118 -35 -159 -18 -111
46 -133 210 -39 295 34 31 45 35 93 35 40 0 62 -6 89 -25 l36 -24 67 76 67 77
-34 28 c-75 63 -244 86 -360 49z"/>
<path d="M3589 6037 c-101 -29 -201 -114 -240 -205 -29 -66 -36 -183 -15 -254
62 -214 306 -324 528 -239 76 29 159 105 195 179 26 52 28 67 28 167 0 106 -1
112 -34 173 -40 73 -92 120 -177 159 -48 22 -76 28 -149 30 -52 2 -109 -3
-136 -10z m163 -187 c32 0 94 -67 108 -114 42 -151 -98 -277 -230 -208 -89 47
-108 218 -32 285 27 25 92 48 117 42 11 -3 28 -5 37 -5z"/>
<path d="M4737 6040 c-106 -27 -195 -99 -243 -196 -26 -54 -29 -68 -29 -164 0
-99 2 -109 32 -166 39 -76 115 -146 191 -176 46 -18 76 -22 157 -22 119 0 187
22 259 85 62 54 84 89 112 167 18 53 23 61 23 37 1 -43 53 -146 95 -188 71
-71 185 -106 284 -87 59 11 82 21 131 58 l33 25 -7 -54 c-10 -77 -40 -125 -93
-150 -80 -39 -232 -15 -304 48 -9 8 -21 12 -26 9 -5 -3 -33 -40 -62 -82 -59
-86 -61 -78 35 -124 132 -65 332 -78 457 -31 117 45 198 154 219 294 5 34 9
207 9 385 l0 323 -112 -3 -113 -3 -5 -34 c-5 -31 -6 -33 -19 -17 -8 10 -38 29
-65 44 -70 36 -187 38 -261 4 -94 -43 -161 -126 -189 -234 l-13 -53 -16 55
c-31 107 -93 177 -204 227 -45 21 -75 27 -147 29 -50 2 -108 -1 -129 -6z m149
-191 c136 -35 164 -244 42 -319 -44 -26 -122 -27 -165 0 -45 27 -73 87 -73
155 0 85 43 149 112 165 18 4 34 8 36 9 2 1 23 -4 48 -10z m819 -18 c43 -24
75 -86 75 -144 0 -64 -20 -109 -66 -143 -31 -24 -47 -29 -95 -29 -70 0 -104
21 -136 85 -28 53 -29 111 -4 165 21 47 38 63 88 81 44 16 94 10 138 -15z"/>
<path d="M6416 6030 c-27 -10 -64 -34 -83 -52 l-33 -32 0 42 0 42 -115 0 -115
0 0 -350 0 -350 120 0 120 0 0 215 c0 231 5 256 52 289 23 16 83 21 113 10 8
-4 23 -21 33 -38 14 -26 17 -67 20 -253 l4 -223 115 0 114 0 -3 268 c-3 258
-4 268 -27 312 -13 25 -33 56 -45 68 -58 65 -181 88 -270 52z"/>
<path d="M7055 6037 c-153 -51 -249 -169 -262 -324 -18 -222 126 -386 350
-400 136 -9 273 41 327 117 l20 29 -42 29 c-24 15 -60 39 -81 51 l-38 23 -27
-25 c-53 -50 -126 -60 -198 -28 -41 19 -84 63 -84 87 0 11 48 14 248 16 l247
3 3 42 c7 102 -38 230 -104 297 -61 61 -133 89 -234 93 -52 2 -101 -2 -125
-10z m212 -191 c19 -20 33 -46 33 -61 l0 -25 -140 0 c-131 0 -140 1 -140 19 0
26 47 81 85 97 17 9 50 13 79 10 42 -3 55 -9 83 -40z"/>
</g>
</svg>
